<?xml version="1.0" standalone="no"?>
<!DOCTYPE svg PUBLIC "-//W3C//DTD SVG 20010904//EN"
 "http://www.w3.org/TR/2001/REC-SVG-20010904/DTD/svg10.dtd">
<svg version="1.0" xmlns="http://www.w3.org/2000/svg"
 width="3000.000000pt" height="2000.000000pt" viewBox="0 0 3000.000000 2000.000000"
 preserveAspectRatio="xMidYMid meet">

<g transform="translate(0.000000,2000.000000) scale(0.100000,-0.100000)"
fill="#000000" stroke="none">
<path d="M9030 12389 c-352 -28 -627 -94 -894 -215 -350 -159 -618 -446 -719
-770 -73 -233 -75 -585 -6 -844 28 -103 117 -282 178 -357 104 -127 302 -278
485 -370 202 -102 303 -140 701 -264 494 -154 657 -244 736 -405 28 -56 33
-78 37 -162 5 -117 -12 -190 -63 -269 -107 -162 -409 -239 -842 -214 -419 25
-735 98 -1021 238 -62 30 -115 53 -116 51 -2 -1 -26 -228 -54 -503 -36 -355
-47 -502 -39 -507 18 -11 245 -69 387 -98 349 -73 577 -95 975 -95 342 1 439
9 694 61 262 53 602 186 787 309 151 101 294 264 379 434 45 90 102 278 126
416 28 166 32 448 6 595 -52 301 -183 519 -422 705 -214 166 -342 221 -980
421 -132 41 -287 91 -345 110 -327 110 -457 250 -422 455 36 208 157 300 467
354 140 24 521 25 695 1 185 -25 336 -61 515 -122 88 -30 167 -57 175 -60 13
-4 21 58 54 467 21 259 34 475 29 479 -13 13 -218 68 -353 94 -334 66 -804 92
-1150 65z"/>
<path d="M21290 12389 c-832 -67 -1513 -427 -1890 -999 -384 -584 -478 -1548
-225 -2315 47 -145 168 -386 253 -505 205 -289 600 -579 1012 -745 215 -87
503 -160 785 -202 151 -22 602 -24 810 -5 174 17 490 69 704 117 233 52 213
38 206 142 -4 49 -17 262 -29 476 -13 213 -25 390 -29 393 -3 3 -18 -1 -34 -9
-46 -24 -213 -84 -309 -112 -383 -111 -833 -140 -1155 -75 -458 94 -825 383
-1001 791 -81 188 -119 396 -119 648 1 446 133 804 405 1089 116 121 221 200
360 267 203 99 385 137 651 138 355 0 692 -82 1029 -252 l132 -67 48 494 c26
272 44 498 39 502 -10 10 -161 59 -288 94 -434 119 -934 169 -1355 135z"/>
<path d="M11110 10001 l0 -2321 595 0 595 0 0 809 0 808 353 6 c495 8 744 40
1010 128 525 175 823 505 929 1031 20 100 23 142 23 358 -1 217 -3 257 -23
350 -31 139 -64 236 -117 343 -201 403 -604 655 -1210 756 -251 42 -286 44
-1232 48 l-923 4 0 -2320z m1775 1425 c255 -48 398 -134 475 -286 50 -98 64
-171 64 -320 0 -151 -14 -222 -65 -323 -60 -117 -163 -201 -319 -258 -133 -48
-224 -59 -496 -59 l-244 0 0 636 0 637 253 -6 c158 -3 282 -11 332 -21z"/>
<path d="M15939 12293 c-6 -16 -389 -1056 -851 -2313 -462 -1257 -842 -2288
-844 -2292 -3 -5 269 -8 604 -8 l609 0 98 273 c53 149 133 372 177 495 l80
222 847 -2 846 -3 165 -492 165 -493 657 0 657 0 -25 68 c-51 133 -1646 4409
-1676 4490 l-30 82 -734 0 -734 0 -11 -27z m1100 -1835 c149 -493 271 -899
271 -902 0 -3 -261 -6 -581 -6 -461 0 -580 3 -577 13 3 6 134 405 292 884 326
994 304 929 316 917 4 -5 130 -413 279 -906z"/>
<path d="M23300 10000 l0 -2320 1620 0 1620 0 0 435 0 435 -1022 2 -1023 3 -3
528 -2 527 935 0 935 0 0 435 0 435 -932 2 -933 3 -3 483 -2 482 985 0 985 0
0 435 0 435 -1580 0 -1580 0 0 -2320z"/>
<path d="M5850 11350 c0 -495 -4 -900 -8 -900 -4 0 -35 32 -67 71 -66 79 -153
156 -247 220 -178 121 -423 182 -728 182 -235 0 -406 -38 -590 -134 -304 -158
-577 -544 -685 -967 -88 -350 -81 -778 20 -1128 103 -355 322 -689 565 -861
341 -241 858 -293 1255 -127 228 96 452 300 536 488 11 25 24 46 29 46 6 0 10
-109 10 -280 l0 -280 485 0 485 0 0 2285 0 2285 -530 0 -530 0 0 -900z m-522
-1276 c242 -50 419 -242 493 -537 30 -119 37 -352 14 -472 -35 -185 -115 -336
-245 -458 -117 -111 -240 -160 -395 -160 -186 1 -319 66 -439 217 -145 182
-205 394 -193 683 8 198 42 313 133 456 84 130 163 199 280 243 120 45 228 54
352 28z"/>
</g>
</svg>
