<?xml version="1.0" standalone="no"?>
<!DOCTYPE svg PUBLIC "-//W3C//DTD SVG 20010904//EN"
 "http://www.w3.org/TR/2001/REC-SVG-20010904/DTD/svg10.dtd">
<svg version="1.0" xmlns="http://www.w3.org/2000/svg"
 width="3000.000000pt" height="2000.000000pt" viewBox="0 0 3000.000000 2000.000000"
 preserveAspectRatio="xMidYMid meet">
<metadata>
Created by potrace 1.16, written by Peter Selinger 2001-2019
</metadata>
<g transform="translate(0.000000,2000.000000) scale(0.100000,-0.100000)"
fill="#000000" stroke="none">
<path d="M9090 12399 c-398 -25 -701 -96 -979 -230 -69 -33 -163 -85 -210
-117 -155 -102 -341 -312 -423 -477 -92 -183 -136 -421 -124 -666 13 -278 73
-484 190 -657 58 -85 81 -110 191 -203 123 -104 223 -168 400 -254 153 -74
264 -114 688 -250 376 -120 523 -190 617 -291 141 -153 141 -423 0 -564 -103
-103 -347 -169 -626 -170 -440 -1 -874 89 -1190 245 l-123 61 -6 -40 c-3 -23
-25 -241 -50 -486 -24 -245 -46 -459 -49 -476 l-4 -30 141 -39 c642 -172 1374
-210 1918 -100 306 62 610 181 819 321 90 59 210 176 272 264 166 235 249 536
249 907 0 257 -39 441 -128 615 -117 227 -327 416 -618 554 -122 58 -257 105
-760 264 -159 51 -324 105 -366 121 -144 55 -254 143 -297 237 -49 107 -14
278 76 370 111 113 346 171 697 172 361 0 697 -62 1014 -189 29 -12 56 -20 58
-17 3 3 82 915 83 957 0 13 -276 85 -435 113 -311 54 -702 76 -1025 55z"/>
<path d="M21335 12399 c-624 -45 -1140 -235 -1554 -573 -395 -321 -635 -778
-721 -1371 -11 -77 -20 -161 -20 -186 0 -25 -3 -48 -6 -52 -10 -9 -5 -403 6
-517 49 -485 181 -865 407 -1170 88 -118 263 -286 401 -384 330 -234 610 -361
1012 -460 485 -119 1005 -123 1619 -11 174 32 468 97 475 106 3 5 -53 972 -57
976 -2 1 -59 -20 -128 -47 -530 -209 -1154 -248 -1578 -98 -330 116 -610 357
-758 652 -210 417 -213 1000 -8 1444 128 276 402 549 655 652 30 12 69 29 86
36 52 23 233 62 336 74 119 12 266 12 373 -1 44 -5 100 -12 125 -15 81 -9 264
-53 382 -93 136 -46 183 -66 345 -147 l122 -62 6 42 c4 34 95 957 95 971 0 14
-393 123 -570 159 -333 67 -746 97 -1045 75z"/>
<path d="M11100 10001 l0 -2331 605 0 605 0 0 815 0 815 323 0 c432 0 655 21
899 86 221 58 370 122 519 220 41 27 79 51 84 53 6 2 21 16 35 31 14 14 32 31
40 36 14 8 71 70 130 139 119 141 218 372 262 611 29 159 32 508 5 651 -80
423 -286 719 -641 920 -153 87 -394 171 -606 212 -322 61 -363 63 -1352 68
l-908 5 0 -2331z m1710 1429 c192 -24 359 -84 437 -158 116 -108 163 -225 171
-419 11 -283 -86 -469 -298 -571 -160 -77 -310 -102 -622 -102 l-188 0 0 630
0 630 208 0 c114 0 246 -5 292 -10z"/>
<path d="M15092 10013 c-469 -1275 -852 -2324 -852 -2331 0 -10 127 -12 612
-10 l611 3 176 492 176 493 843 0 c554 0 842 -3 843 -10 2 -14 5 -23 12 -40 4
-8 27 -73 51 -145 24 -71 71 -210 105 -309 33 -98 58 -182 56 -186 -3 -5 -1
-10 3 -12 5 -1 30 -67 56 -145 l48 -143 664 0 663 0 -28 78 c-24 65 -526 1411
-1486 3982 l-222 595 -739 3 -740 2 -852 -2317z m1863 699 c102 -338 183 -618
180 -622 -3 -5 -1 -10 4 -12 8 -3 161 -498 161 -520 0 -4 -256 -8 -570 -8
-313 0 -570 3 -570 8 0 4 49 156 110 337 60 182 193 586 296 900 141 428 189
565 196 550 4 -11 91 -296 193 -633z"/>
<path d="M23290 10000 l0 -2330 1625 0 1625 0 0 445 0 445 -1020 0 -1020 0 0
520 0 520 928 0 c511 0 931 2 933 4 2 2 3 203 1 445 l-2 441 -930 0 -930 0 0
475 0 475 985 0 985 0 0 445 0 445 -1590 0 -1590 0 0 -2330z"/>
<path d="M5840 11358 l0 -903 -37 45 c-102 126 -275 266 -404 324 -137 63
-376 106 -594 106 -295 0 -531 -71 -737 -222 -183 -134 -374 -401 -482 -674
-56 -141 -110 -363 -120 -489 -8 -110 -5 -396 6 -495 6 -58 12 -118 12 -135 1
-16 5 -33 9 -36 4 -3 9 -27 10 -52 1 -26 5 -47 9 -47 3 0 5 -8 4 -17 -2 -10 0
-20 3 -23 7 -6 74 -210 74 -227 0 -7 4 -13 9 -13 4 0 8 -6 8 -12 0 -15 95
-205 112 -225 6 -7 7 -13 4 -13 -4 0 0 -8 9 -17 10 -9 22 -29 27 -45 6 -15 13
-28 18 -28 4 0 32 -33 62 -72 52 -69 193 -218 207 -218 3 0 23 -15 43 -34 21
-19 47 -37 58 -41 11 -3 26 -12 33 -18 28 -26 140 -75 257 -112 47 -15 92 -30
100 -33 8 -3 26 -6 40 -7 14 -1 75 -8 135 -15 103 -12 300 -9 365 5 14 3 41 9
60 12 114 18 311 103 433 185 75 50 195 164 247 234 21 27 54 81 73 120 l36
69 1 -282 0 -283 495 0 495 0 0 2295 0 2295 -540 0 -540 0 0 -902z m-535
-1287 c3 -6 18 -11 33 -11 32 0 97 -22 155 -51 22 -12 77 -58 122 -103 62 -62
90 -101 123 -167 24 -47 45 -92 46 -100 2 -8 6 -21 10 -30 4 -9 8 -27 10 -41
1 -13 5 -28 8 -34 34 -53 42 -359 14 -489 -35 -159 -108 -297 -220 -413 -214
-223 -553 -243 -767 -44 -113 104 -199 252 -239 407 -28 111 -41 286 -30 404
8 84 17 126 46 229 3 12 11 22 16 22 5 0 7 4 4 9 -7 11 58 137 94 183 48 60
115 128 127 128 7 0 13 5 13 10 0 6 9 10 20 10 11 0 20 4 20 8 0 15 60 43 130
60 83 20 255 28 265 13z"/>
</g>
</svg>
